<?xml version="1.0" encoding="UTF-8" standalone="no"?>
<!-- Created with Inkscape (http://www.inkscape.org/) -->

<svg
   width="194.43201mm"
   height="45.995296mm"
   viewBox="0 0 194.432 45.995303"
   version="1.1"
   id="svg5"
   inkscape:version="1.2.2 (b0a84865, 2022-12-01)"
   sodipodi:docname="benk.svg"
   inkscape:export-filename="benk.png"
   inkscape:export-xdpi="250.82289"
   inkscape:export-ydpi="250.82289"
   xmlns:inkscape="http://www.inkscape.org/namespaces/inkscape"
   xmlns:sodipodi="http://sodipodi.sourceforge.net/DTD/sodipodi-0.dtd"
   xmlns="http://www.w3.org/2000/svg"
   xmlns:svg="http://www.w3.org/2000/svg">
  <sodipodi:namedview
     id="namedview7"
     pagecolor="#ffffff"
     bordercolor="#666666"
     borderopacity="1.0"
     inkscape:showpageshadow="2"
     inkscape:pageopacity="0.0"
     inkscape:pagecheckerboard="0"
     inkscape:deskcolor="#d1d1d1"
     inkscape:document-units="mm"
     showgrid="false"
     showguides="true"
     inkscape:zoom="0.88732872"
     inkscape:cx="483.47359"
     inkscape:cy="7.8888464"
     inkscape:window-width="1685"
     inkscape:window-height="838"
     inkscape:window-x="1449"
     inkscape:window-y="76"
     inkscape:window-maximized="0"
     inkscape:current-layer="layer1" />
  <defs
     id="defs2" />
  <g
     inkscape:label="Layer 1"
     inkscape:groupmode="layer"
     id="layer1"
     transform="translate(-9.7838421,-127.98061)">
    <g
       aria-label="H"
       transform="matrix(0,0.66709342,-1.4990404,0,0.54073681,0)"
       id="text398"
       style="font-size:78.0621px;line-height:1.25;stroke-width:1.95156" />
    <g
       aria-label="H"
       transform="matrix(0,0.4370455,-1.3235176,0,10.459358,33.148646)"
       id="g501"
       style="font-size:78.0621px;line-height:1.25;fill:#ffffff;stroke-width:1.95156" />
    <g
       aria-label="H"
       transform="matrix(0,0.66709342,-1.4990404,0,-1.88505,70.808767)"
       id="g757"
       style="font-size:78.0621px;line-height:1.25;stroke-width:1.95156" />
    <g
       aria-label="K"
       transform="matrix(0,0.42325838,-0.95111328,0,-18.588641,78.676882)"
       id="text236"
       style="font-size:78.0621px;line-height:1.25;stroke-width:1.95156;fill:#66ff00">
      <path
         id="path681"
         d="m 122.34135,-31.93345 h 43.41452 v -8.821643 h 9.1858 v 8.821643 h 7.54742 v -16.793871 l 6.9277,-7.481332 21.16423,24.275203 h 8.71947 l -25.77805,-28.708432 25.77805,-28.046895 h -9.2532 l -27.5582,29.616451 v -29.616451 h -7.54742 v 8.821643 h -9.1858 v -8.821298 h -43.41452 z m 7.50171,-3.322854 v -50.10962 h 28.44285 v 50.10962 z m 35.91281,-8.821642 v -32.466335 h 9.1858 v 32.466335 z"
         style="fill:#66ff00" />
    </g>
    <g
       aria-label="BENK"
       id="text245"
       style="font-size:39.557px;line-height:1.25;letter-spacing:-3.46218px;stroke-width:0.988929;fill:#4d4d4d"
       transform="matrix(1.4269422,0,0,1.4269422,-25.168221,30.120958)"
       inkscape:export-filename="./benk-light-bg.png"
       inkscape:export-xdpi="256.09097"
       inkscape:export-ydpi="256.09097">
      <path
         d="m 88.12248,90.230432 q 0,2.143959 -0.811227,3.785729 -0.811228,1.64177 -2.182589,2.704092 -1.622455,1.274786 -3.573264,1.815604 -1.931494,0.540818 -4.92531,0.540818 H 66.431802 V 70.316728 h 8.517889 q 3.148335,0 4.712845,0.23178 1.56451,0.231779 2.993816,0.965747 1.583825,0.830542 2.298478,2.143958 0.714653,1.294101 0.714653,3.109706 0,2.047383 -1.043007,3.496004 -1.043007,1.429305 -2.781352,2.298478 v 0.154519 q 2.916557,0.598764 4.596956,2.568888 1.6804,1.950809 1.6804,4.944624 z M 81.690605,77.270107 q 0,-1.043007 -0.347669,-1.75766 -0.347669,-0.714652 -1.120267,-1.158896 -0.907802,-0.521503 -2.201903,-0.637393 -1.294101,-0.135205 -3.20628,-0.135205 H 70.25616 v 8.305425 h 4.944625 q 1.796289,0 2.858611,-0.173835 1.062322,-0.193149 1.970124,-0.772597 0.907802,-0.579448 1.274786,-1.487251 0.386299,-0.927117 0.386299,-2.182588 z m 2.452997,13.114845 q 0,-1.738345 -0.521503,-2.762037 -0.521503,-1.023691 -1.892864,-1.738344 -0.927117,-0.482874 -2.259848,-0.618078 -1.313416,-0.15452 -3.20628,-0.15452 H 70.25616 V 95.81245 h 5.060514 q 2.510943,0 4.114083,-0.251094 1.60314,-0.270409 2.626832,-0.965747 1.081637,-0.753283 1.583825,-1.71903 0.502188,-0.965747 0.502188,-2.491627 z"
         style="-inkscape-font-specification:sans-serif;fill:#4d4d4d"
         id="path691" />
      <path
         d="M 109.03576,99.076675 H 90.0878 V 70.316728 h 18.94796 v 3.39943 H 93.912158 v 7.880496 h 15.123602 v 3.399429 H 93.912158 v 10.681163 h 15.123602 z"
         style="-inkscape-font-specification:sans-serif;fill:#4d4d4d"
         id="path693" />
      <path
         d="m 133.58024,99.076675 h -4.73216 L 115.21173,73.349174 v 25.727501 h -3.57326 V 70.316728 h 5.92968 l 12.43883,23.486969 V 70.316728 h 3.57326 z"
         style="letter-spacing:-4.99825px;fill:#4d4d4d"
         id="path695" />
      <path
         d="m 159.35069,99.076675 h -4.96394 l -11.3765,-12.805805 -2.85861,3.05176 v 9.754045 h -3.82436 V 70.316728 h 3.82436 v 15.007709 l 13.9647,-15.007709 h 4.63559 l -12.84444,13.520459 z"
         style="-inkscape-font-specification:sans-serif;fill:#4d4d4d"
         id="path697" />
    </g>
    <g
       aria-label="K"
       transform="matrix(0,0.42325838,-0.95111328,0,-18.588641,24.408193)"
       id="g747"
       style="font-size:78.0621px;line-height:1.25;fill:#66ff00;stroke-width:1.95156"
       inkscape:export-filename="./benk-dark-bg.png"
       inkscape:export-xdpi="256.09097"
       inkscape:export-ydpi="256.09097">
      <path
         id="path745"
         d="m 122.34135,-31.93345 h 43.41452 v -8.821643 h 9.1858 v 8.821643 h 7.54742 v -16.793871 l 6.9277,-7.481332 21.16423,24.275203 h 8.71947 l -25.77805,-28.708432 25.77805,-28.046895 h -9.2532 l -27.5582,29.616451 v -29.616451 h -7.54742 v 8.821643 h -9.1858 v -8.821298 h -43.41452 z m 7.50171,-3.322854 v -50.10962 h 28.44285 v 50.10962 z m 35.91281,-8.821642 v -32.466335 h 9.1858 v 32.466335 z"
         style="fill:#66ff00" />
    </g>
    <g
       aria-label="BENK"
       id="g758"
       style="font-size:39.557px;line-height:1.25;letter-spacing:-3.46218px;fill:#b3b3b3;stroke-width:0.988929"
       transform="matrix(1.4269422,0,0,1.4269422,-25.168221,-24.147731)">
      <path
         d="m 88.12248,90.230432 q 0,2.143959 -0.811227,3.785729 -0.811228,1.64177 -2.182589,2.704092 -1.622455,1.274786 -3.573264,1.815604 -1.931494,0.540818 -4.92531,0.540818 H 66.431802 V 70.316728 h 8.517889 q 3.148335,0 4.712845,0.23178 1.56451,0.231779 2.993816,0.965747 1.583825,0.830542 2.298478,2.143958 0.714653,1.294101 0.714653,3.109706 0,2.047383 -1.043007,3.496004 -1.043007,1.429305 -2.781352,2.298478 v 0.154519 q 2.916557,0.598764 4.596956,2.568888 1.6804,1.950809 1.6804,4.944624 z M 81.690605,77.270107 q 0,-1.043007 -0.347669,-1.75766 -0.347669,-0.714652 -1.120267,-1.158896 -0.907802,-0.521503 -2.201903,-0.637393 -1.294101,-0.135205 -3.20628,-0.135205 H 70.25616 v 8.305425 h 4.944625 q 1.796289,0 2.858611,-0.173835 1.062322,-0.193149 1.970124,-0.772597 0.907802,-0.579448 1.274786,-1.487251 0.386299,-0.927117 0.386299,-2.182588 z m 2.452997,13.114845 q 0,-1.738345 -0.521503,-2.762037 -0.521503,-1.023691 -1.892864,-1.738344 -0.927117,-0.482874 -2.259848,-0.618078 -1.313416,-0.15452 -3.20628,-0.15452 H 70.25616 V 95.81245 h 5.060514 q 2.510943,0 4.114083,-0.251094 1.60314,-0.270409 2.626832,-0.965747 1.081637,-0.753283 1.583825,-1.71903 0.502188,-0.965747 0.502188,-2.491627 z"
         style="-inkscape-font-specification:sans-serif;fill:#b3b3b3"
         id="path749" />
      <path
         d="M 109.03576,99.076675 H 90.0878 V 70.316728 h 18.94796 v 3.39943 H 93.912158 v 7.880496 h 15.123602 v 3.399429 H 93.912158 v 10.681163 h 15.123602 z"
         style="-inkscape-font-specification:sans-serif;fill:#b3b3b3"
         id="path751" />
      <path
         d="m 133.58024,99.076675 h -4.73216 L 115.21173,73.349174 v 25.727501 h -3.57326 V 70.316728 h 5.92968 l 12.43883,23.486969 V 70.316728 h 3.57326 z"
         style="letter-spacing:-4.99825px;fill:#b3b3b3"
         id="path753" />
      <path
         d="m 159.35069,99.076675 h -4.96394 l -11.3765,-12.805805 -2.85861,3.05176 v 9.754045 h -3.82436 V 70.316728 h 3.82436 v 15.007709 l 13.9647,-15.007709 h 4.63559 l -12.84444,13.520459 z"
         style="-inkscape-font-specification:sans-serif;fill:#b3b3b3"
         id="path755" />
    </g>
  </g>
</svg>
